0
SECTION
2
HEADER
9
$ACADVER
1
AC1009
9
$INSUNITS
70
4
9
$MEASUREMENT
70
1
9
$EXTMIN
10
0.0000
20
0.0000
30
0.0000
9
$EXTMAX
10
1921.6573
20
721.6573
30
0.0000
0
ENDSEC
0
SECTION
2
TABLES
0
TABLE
2
LTYPE
70
2
0
LTYPE
2
CONTINUOUS
70
0
3
Solid line
72
65
73
0
40
0.0000
0
LTYPE
2
DASHED
70
0
3
__ __ __ __ __ __ __ __ __ __ __
72
65
73
2
40
12.7000
49
8.4667
49
-4.2333
0
ENDTAB
0
TABLE
2
LAYER
70
6
0
LAYER
2
CUT_OUTER
70
0
62
7
6
CONTINUOUS
0
LAYER
2
CUT_INNER
70
0
62
2
6
CONTINUOUS
0
LAYER
2
BEND_UP
70
0
62
3
6
DASHED
0
LAYER
2
BEND_DOWN
70
0
62
1
6
DASHED
0
LAYER
2
ETCH
70
0
62
4
6
CONTINUOUS
0
LAYER
2
INFO
70
0
62
8
6
CONTINUOUS
0
ENDTAB
0
ENDSEC
0
SECTION
2
ENTITIES
0
POLYLINE
8
CUT_OUTER
6
CONTINUOUS
66
1
70
1
10
0.0000
20
0.0000
30
0.0000
0
VERTEX
8
CUT_OUTER
10
1835.2287
20
721.6573
30
0.0000
0
VERTEX
8
CUT_OUTER
10
86.4287
20
721.6573
30
0.0000
0
VERTEX
8
CUT_OUTER
10
63.8287
20
699.0573
30
0.0000
0
VERTEX
8
CUT_OUTER
10
63.8287
20
696.3430
30
0.0000
0
VERTEX
8
CUT_OUTER
10
63.8287
20
661.1430
30
0.0000
0
VERTEX
8
CUT_OUTER
10
63.8287
20
658.4287
30
0.0000
0
VERTEX
8
CUT_OUTER
10
63.2287
20
658.4287
30
0.0000
0
VERTEX
8
CUT_OUTER
10
63.2287
20
657.8287
30
0.0000
0
VERTEX
8
CUT_OUTER
10
60.5143
20
657.8287
30
0.0000
0
VERTEX
8
CUT_OUTER
10
25.3143
20
657.8287
30
0.0000
0
VERTEX
8
CUT_OUTER
10
22.6000
20
657.8287
30
0.0000
0
VERTEX
8
CUT_OUTER
10
0.0000
20
635.2287
30
0.0000
0
VERTEX
8
CUT_OUTER
10
0.0000
20
86.4287
30
0.0000
0
VERTEX
8
CUT_OUTER
10
22.6000
20
63.8287
30
0.0000
0
VERTEX
8
CUT_OUTER
10
25.3143
20
63.8287
30
0.0000
0
VERTEX
8
CUT_OUTER
10
60.5143
20
63.8287
30
0.0000
0
VERTEX
8
CUT_OUTER
10
63.2287
20
63.8287
30
0.0000
0
VERTEX
8
CUT_OUTER
10
63.2287
20
63.2287
30
0.0000
0
VERTEX
8
CUT_OUTER
10
63.8287
20
63.2287
30
0.0000
0
VERTEX
8
CUT_OUTER
10
63.8287
20
60.5143
30
0.0000
0
VERTEX
8
CUT_OUTER
10
63.8287
20
25.3143
30
0.0000
0
VERTEX
8
CUT_OUTER
10
63.8287
20
22.6000
30
0.0000
0
VERTEX
8
CUT_OUTER
10
86.4287
20
0.0000
30
0.0000
0
VERTEX
8
CUT_OUTER
10
1835.2287
20
0.0000
30
0.0000
0
VERTEX
8
CUT_OUTER
10
1857.8287
20
22.6000
30
0.0000
0
VERTEX
8
CUT_OUTER
10
1857.8287
20
25.3143
30
0.0000
0
VERTEX
8
CUT_OUTER
10
1857.8287
20
60.5143
30
0.0000
0
VERTEX
8
CUT_OUTER
10
1857.8287
20
63.2287
30
0.0000
0
VERTEX
8
CUT_OUTER
10
1858.4287
20
63.2287
30
0.0000
0
VERTEX
8
CUT_OUTER
10
1858.4287
20
63.8287
30
0.0000
0
VERTEX
8
CUT_OUTER
10
1861.1430
20
63.8287
30
0.0000
0
VERTEX
8
CUT_OUTER
10
1896.3430
20
63.8287
30
0.0000
0
VERTEX
8
CUT_OUTER
10
1899.0573
20
63.8287
30
0.0000
0
VERTEX
8
CUT_OUTER
10
1921.6573
20
86.4287
30
0.0000
0
VERTEX
8
CUT_OUTER
10
1921.6573
20
635.2287
30
0.0000
0
VERTEX
8
CUT_OUTER
10
1899.0573
20
657.8287
30
0.0000
0
VERTEX
8
CUT_OUTER
10
1896.3430
20
657.8287
30
0.0000
0
VERTEX
8
CUT_OUTER
10
1861.1430
20
657.8287
30
0.0000
0
VERTEX
8
CUT_OUTER
10
1858.4287
20
657.8287
30
0.0000
0
VERTEX
8
CUT_OUTER
10
1858.4287
20
658.4287
30
0.0000
0
VERTEX
8
CUT_OUTER
10
1857.8287
20
658.4287
30
0.0000
0
VERTEX
8
CUT_OUTER
10
1857.8287
20
661.1430
30
0.0000
0
VERTEX
8
CUT_OUTER
10
1857.8287
20
696.3430
30
0.0000
0
VERTEX
8
CUT_OUTER
10
1857.8287
20
699.0573
30
0.0000
0
SEQEND
8
CUT_OUTER
0
LINE
8
BEND_DOWN
6
DASHED
10
63.8287
20
61.8715
30
0.0000
11
1857.8287
21
61.8715
31
0.0000
0
LINE
8
BEND_DOWN
6
DASHED
10
1859.7858
20
63.8287
30
0.0000
11
1859.7858
21
657.8287
31
0.0000
0
LINE
8
BEND_DOWN
6
DASHED
10
1857.8287
20
659.7858
30
0.0000
11
63.8287
21
659.7858
31
0.0000
0
LINE
8
BEND_DOWN
6
DASHED
10
61.8715
20
657.8287
30
0.0000
11
61.8715
21
63.8287
31
0.0000
0
LINE
8
BEND_DOWN
6
DASHED
10
63.8287
20
23.9572
30
0.0000
11
1857.8287
21
23.9572
31
0.0000
0
LINE
8
BEND_DOWN
6
DASHED
10
1897.7002
20
63.8287
30
0.0000
11
1897.7002
21
657.8287
31
0.0000
0
LINE
8
BEND_DOWN
6
DASHED
10
1857.8287
20
697.7002
30
0.0000
11
63.8287
21
697.7002
31
0.0000
0
LINE
8
BEND_DOWN
6
DASHED
10
23.9572
20
657.8287
30
0.0000
11
23.9572
21
63.8287
31
0.0000
0
TEXT
8
ETCH
10
5.0000
20
5.0000
30
0.0000
40
5.0000
1
BT-001
0
LINE
8
ETCH
6
CONTINUOUS
10
5.0000
20
15.0000
30
0.0000
11
35.0000
21
15.0000
31
0.0000
0
LINE
8
ETCH
6
CONTINUOUS
10
35.0000
20
15.0000
30
0.0000
11
30.0000
21
17.0000
31
0.0000
0
LINE
8
ETCH
6
CONTINUOUS
10
35.0000
20
15.0000
30
0.0000
11
30.0000
21
13.0000
31
0.0000
0
TEXT
8
ETCH
10
5.0000
20
21.0000
30
0.0000
40
3.5000
1
GRAIN
0
TEXT
8
INFO
10
0.0000
20
727.2573
30
0.0000
40
3.5000
1
MVP benchtop rev A
0
TEXT
8
INFO
10
0.0000
20
732.8573
30
0.0000
40
3.5000
1
MATERIAL ss304 1.2 mm
0
TEXT
8
INFO
10
0.0000
20
738.4573
30
0.0000
40
3.5000
1
BLANK 1921.7 x 721.7 mm
0
TEXT
8
INFO
10
0.0000
20
744.0573
30
0.0000
40
3.5000
1
GRAIN LENGTH
0
TEXT
8
INFO
10
0.0000
20
749.6573
30
0.0000
40
3.5000
1
DATE 2026-08-09
0
TEXT
8
INFO
10
0.0000
20
755.2573
30
0.0000
40
3.5000
1
BEND 1 90.0 DEG DOWN R1.20 LEN 1794.0
0
TEXT
8
INFO
10
0.0000
20
760.8573
30
0.0000
40
3.5000
1
BEND 2 90.0 DEG DOWN R1.20 LEN 594.0
0
TEXT
8
INFO
10
0.0000
20
766.4573
30
0.0000
40
3.5000
1
BEND 3 90.0 DEG DOWN R1.20 LEN 1794.0
0
TEXT
8
INFO
10
0.0000
20
772.0573
30
0.0000
40
3.5000
1
BEND 4 90.0 DEG DOWN R1.20 LEN 594.0
0
TEXT
8
INFO
10
0.0000
20
777.6573
30
0.0000
40
3.5000
1
BEND 5 90.0 DEG DOWN R1.20 LEN 1794.0
0
TEXT
8
INFO
10
0.0000
20
783.2573
30
0.0000
40
3.5000
1
BEND 6 90.0 DEG DOWN R1.20 LEN 594.0
0
TEXT
8
INFO
10
0.0000
20
788.8573
30
0.0000
40
3.5000
1
BEND 7 90.0 DEG DOWN R1.20 LEN 1794.0
0
TEXT
8
INFO
10
0.0000
20
794.4573
30
0.0000
40
3.5000
1
BEND 8 90.0 DEG DOWN R1.20 LEN 594.0
0
ENDSEC
0
EOF
